<svg xmlns:dc="http://purl.org/dc/elements/1.1/" xmlns:cc="http://creativecommons.org/ns#" xmlns:rdf="http://www.w3.org/1999/02/22-rdf-syntax-ns#" xmlns:svg="http://www.w3.org/2000/svg" xmlns="http://www.w3.org/2000/svg" version="1.0" width="750" height="600" id="svg2">
  <defs id="defs13" />
  <metadata id="metadata7">
    <rdf:RDF>
      <cc:Work rdf:about="">
        <dc:format>image/svg+xml</dc:format>
        <dc:type rdf:resource="http://purl.org/dc/dcmitype/StillImage" />
        <dc:title />
      </cc:Work>
    </rdf:RDF>
  </metadata>
  <g transform="translate(0 0.00048)" id="layer1">
    <rect x="0" y="-0.00048" width="750" height="600" ry="37.5" rx="37.5" id="rect3805" />
    <path fill="#fff" d="m125 25 14.438 100h-114.44l65 450h570l65-450h-114.44l14.438-100h-500z" id="rect2989" />
    <g id="routenum">
      <path d="m88.713 450q0.89552-15.224 1.791-26.418 1.3433-11.194 2.6866-20.149 1.791-8.9552 4.0298-17.015 2.6866-8.5075 6.2687-18.358 18.358-47.015 48.358-74.776 2.6866-2.2388 5.3731-4.4776 3.1343-2.6866 7.1642-5.8209 4.4776-3.1343 10.299-7.6119 6.2687-4.4776 15.224-10.746 14.776-10.298 19.701-17.463 5.3731-7.1642 5.3731-18.358 0-8.5075-3.5821-16.119-3.1343-7.6119-8.9552-13.433-5.3731-5.8209-13.433-8.9552-7.6119-3.5821-16.119-3.5821-8.9552 0-16.567 3.5821-7.6119 3.1343-13.433 8.9552-5.3731 5.8209-8.9552 13.433-3.1343 7.6119-3.1343 16.119h-42.09q0.44776-17.463 6.7164-32.687 6.7164-15.672 17.91-26.866 11.194-11.642 26.418-17.91 15.224-6.7164 33.134-6.7164 17.463 0 32.239 6.7164 15.224 6.7164 26.418 18.358 11.642 11.194 17.91 26.418 6.7164 15.224 6.7164 32.687 0 35.821-25.522 59.104-2.2388 1.791-4.9254 3.5821-2.2388 1.3433-4.4776 3.5821l-10.299 7.612-10.746 7.1642-11.642 8.5075q-7.1642 5.3731-14.328 12.985-6.7164 7.1642-13.433 16.119-6.2686 8.5075-11.194 18.358-4.9254 9.403-8.0597 18.806-2.6866 5.8209-4.0298 10.746-0.89552 4.4776-2.6866 12.537h121.34v42.09h-167.46z" style="" id="path13" />
      <path d="m459.07 361.79q0 21.493-7.6119 41.194-7.6119 19.254-21.045 32.239-19.701 20.149-54.627 20.149-22.388 0-38.507-8.0597-15.672-8.0597-26.866-23.731-8.9552-12.537-13.881-28.657-4.9254-16.119-4.9254-33.134 0-22.388 6.7164-41.194 7.1642-19.254 21.493-33.582-24.179-26.418-24.179-62.239 0-17.463 5.8209-32.239t16.119-25.075q10.746-10.746 25.522-16.567 14.776-6.2687 32.687-6.2687 17.463 0 31.791 6.2687 14.328 5.8209 24.627 16.567 10.746 10.299 16.567 25.075 5.8209 14.776 5.8209 32.239 0 18.358-6.2687 34.478-5.8209 15.672-17.91 27.761 14.328 13.433 21.493 33.134 7.1642 19.254 7.1642 41.642zm-46.57-137.01q0-16.567-10.746-27.313-10.299-10.746-25.97-10.746-16.567 0-27.313 10.746t-10.746 27.313q0 18.358 10.746 29.104t27.313 10.746q15.672 0 25.97-10.746 10.75-10.75 10.75-29.1zm5.3731 137.01q0-24.627-11.642-38.955-11.642-14.776-30.448-14.776t-30.448 14.776q-11.642 14.328-11.642 38.955 0 22.836 11.642 37.164t30.448 14.328 30.448-14.328 11.642-37.164z" style="" id="path15" />
      <path d="m661.96 368.96q0 18.358-6.2687 34.478-6.2686 15.672-17.463 27.313-10.746 11.642-26.418 18.358-15.224 6.2686-33.134 6.2686-18.358 0-33.582-6.2686-14.776-6.2687-25.97-17.463-10.746-11.194-17.463-26.418-6.2687-15.672-7.1642-34.03h42.09q1.791 18.358 12.985 30.448 11.642 11.642 29.104 11.642 18.358 0 30-12.537 12.09-12.985 12.09-31.791 0-12.09-3.1343-22.388-3.1343-10.746-8.5075-18.358-5.3731-8.0597-12.537-12.537-6.7164-4.4776-14.776-4.4776h-21.045v-41.194h17.91q8.0597 0 12.09-2.6866 4.4776-2.6866 9.8507-8.9552 12.985-14.328 12.985-33.582 0-17.463-9.8508-27.761-9.403-10.299-25.075-10.299-14.328 0-22.836 8.5075-8.0597 8.0597-9.8507 23.284l-42.09-5.3731q1.791-14.776 8.0597-27.313 6.2686-12.985 16.119-21.94 9.8508-8.9552 22.836-13.881 12.985-5.3731 27.761-5.3731 16.119 0 30 5.8209t23.731 16.567q10.299 10.299 16.119 24.627 5.8209 13.881 5.8209 30 0 18.806-6.2687 34.925-5.8209 16.119-21.045 33.582 17.463 15.672 25.97 35.821 8.9552 20.149 8.9552 42.985z" style="" id="path17" />
    </g>
  </g>
</svg>